<svg xmlns="http://www.w3.org/2000/svg" xmlns:xlink="http://www.w3.org/1999/xlink" viewBox="0 0 425.2 425.2"><defs><style>.cls-1{fill:none;}.cls-2{isolation:isolate;}.cls-3{clip-path:url(#clip-path);}.cls-4{opacity:0.29;}.cls-5{opacity:0.25;mix-blend-mode:multiply;}.cls-6,.cls-8{fill:#3b3b3b;}.cls-7{fill:#ff7180;}.cls-11,.cls-12,.cls-13,.cls-14,.cls-15,.cls-8{opacity:0.72;}.cls-9{fill:#fff;}.cls-10{fill:#f0f8ff;}.cls-11{fill:url(#Degradado_sin_nombre_15);}.cls-12{fill:url(#Degradado_sin_nombre_15-2);}.cls-13{fill:url(#Degradado_sin_nombre_15-3);}.cls-14{fill:url(#Degradado_sin_nombre_15-4);}.cls-15{fill:url(#Degradado_sin_nombre_15-5);}.cls-16{fill:#ff998f;}.cls-17{fill:#ffb9b4;}.cls-18{fill:#241352;}.cls-19{fill:url(#Degradado_sin_nombre_22);}.cls-20{fill:#ffd3b8;}.cls-21{opacity:0.36;}.cls-22{fill:#4c3f84;}</style><clipPath id="clip-path"><path class="cls-1" d="M47.5-127H373.33c26.43,0,47.85,20.29,47.85,45.32V425H-.36V-81.68C-.36-106.71,21.07-127,47.5-127Z"/></clipPath><linearGradient id="Degradado_sin_nombre_15" x1="342.65" y1="34.75" x2="146.66" y2="215.56" gradientUnits="userSpaceOnUse"><stop offset="0.05" stop-color="#a568fa"/><stop offset="1" stop-color="#00d8fb"/></linearGradient><linearGradient id="Degradado_sin_nombre_15-2" x1="372.68" y1="62.38" x2="174.21" y2="245.47" xlink:href="#Degradado_sin_nombre_15"/><linearGradient id="Degradado_sin_nombre_15-3" x1="388.73" y1="77.73" x2="189.86" y2="261.2" xlink:href="#Degradado_sin_nombre_15"/><linearGradient id="Degradado_sin_nombre_15-4" x1="416.32" y1="106.75" x2="217.5" y2="290.17" xlink:href="#Degradado_sin_nombre_15"/><linearGradient id="Degradado_sin_nombre_15-5" x1="430.12" y1="120.71" x2="231.25" y2="304.18" xlink:href="#Degradado_sin_nombre_15"/><linearGradient id="Degradado_sin_nombre_22" x1="142.57" y1="209.01" x2="189.32" y2="332.77" gradientUnits="userSpaceOnUse"><stop offset="0" stop-color="#fd8f7e"/><stop offset="0.15" stop-color="#fd847e"/><stop offset="0.7" stop-color="#fd6280"/><stop offset="1" stop-color="#fd5580"/></linearGradient></defs><title>admin</title><g class="cls-2"><g id="Layer_1" data-name="Layer 1"><g class="cls-3"><g class="cls-4"><g class="cls-5"><path class="cls-6" d="M207.82,428.49c-10.58-26-13.58-53.71,17.05-66.58,22.8-9.58,41.65,1.9,64.84,5.39,26.28,4,53-2.51,72.46-20.16,37.09-33.55,33-106.44-22-120.53-13.72-3.51-28.46,11.95-19.56,24.11,10.74,14.66,28,30.19,23.21,50.06-7.23,29.86-41.89,28.35-65.77,23.2-27-5.83-51.8-10-77.28,3.63-43.12,23-56.61,82.44-15.31,113.2,9.12,6.79,27.72.94,22.34-12.32Z"/></g><path class="cls-7" d="M204.15,425c-10.58-26-13.58-53.71,17-66.58,22.81-9.58,41.65,1.9,64.84,5.39,26.28,4,52.95-2.51,72.47-20.16,37.09-33.55,33-106.45-22-120.53-13.72-3.52-28.46,11.95-19.56,24.1,10.73,14.67,28,30.2,23.21,50.07-7.23,29.86-41.9,28.35-65.78,23.2-27-5.83-51.8-9.95-77.28,3.63-43.11,23-56.6,82.44-15.31,113.2,9.12,6.79,27.73.94,22.34-12.32Z"/></g><g class="cls-5"><path class="cls-6" d="M427.62,260.44H160a8.91,8.91,0,0,1-9.16-8.65v-184A8.91,8.91,0,0,1,160,59.09H427.62a8.92,8.92,0,0,1,9.17,8.65V251.79A8.92,8.92,0,0,1,427.62,260.44Z"/><path class="cls-6" d="M259,208.37H231.52a3.57,3.57,0,0,1-3.67-3.46v-92a3.58,3.58,0,0,1,3.67-3.47H259a3.57,3.57,0,0,1,3.66,3.47v92A3.57,3.57,0,0,1,259,208.37Z"/><path class="cls-6" d="M215,208.37H187.53a3.57,3.57,0,0,1-3.66-3.46v-92a3.57,3.57,0,0,1,3.66-3.47H215a3.58,3.58,0,0,1,3.67,3.47v92A3.57,3.57,0,0,1,215,208.37Z"/><path class="cls-8" d="M215,208.37H187.53a3.57,3.57,0,0,1-3.66-3.46v-52.1a3.57,3.57,0,0,1,3.66-3.46H215a3.57,3.57,0,0,1,3.67,3.46v52.1A3.57,3.57,0,0,1,215,208.37Z"/><path class="cls-8" d="M259,208.37H231.52a3.57,3.57,0,0,1-3.67-3.46V182.32a3.57,3.57,0,0,1,3.67-3.46H259a3.57,3.57,0,0,1,3.66,3.46v22.59A3.57,3.57,0,0,1,259,208.37Z"/><path class="cls-6" d="M303,208.37H275.5a3.57,3.57,0,0,1-3.66-3.46v-92a3.57,3.57,0,0,1,3.66-3.47H303a3.57,3.57,0,0,1,3.66,3.47v92A3.57,3.57,0,0,1,303,208.37Z"/><path class="cls-6" d="M347,208.37H319.49a3.57,3.57,0,0,1-3.66-3.46v-92a3.57,3.57,0,0,1,3.66-3.47H347a3.58,3.58,0,0,1,3.67,3.47v92A3.57,3.57,0,0,1,347,208.37Z"/><path class="cls-6" d="M391,208.37H363.48a3.57,3.57,0,0,1-3.67-3.46v-92a3.58,3.58,0,0,1,3.67-3.47H391a3.57,3.57,0,0,1,3.66,3.47v92A3.57,3.57,0,0,1,391,208.37Z"/><path class="cls-8" d="M303,208.37H275.5a3.57,3.57,0,0,1-3.66-3.46V161.49A3.57,3.57,0,0,1,275.5,158H303a3.57,3.57,0,0,1,3.66,3.46v43.42A3.57,3.57,0,0,1,303,208.37Z"/><path class="cls-8" d="M347,208.37H319.49a3.57,3.57,0,0,1-3.66-3.46V189.27a3.57,3.57,0,0,1,3.66-3.47H347a3.57,3.57,0,0,1,3.67,3.47v15.64A3.57,3.57,0,0,1,347,208.37Z"/><path class="cls-8" d="M391,208.37H363.48a3.57,3.57,0,0,1-3.67-3.46V161.49a3.57,3.57,0,0,1,3.67-3.46H391a3.57,3.57,0,0,1,3.66,3.46v43.42A3.57,3.57,0,0,1,391,208.37Z"/><rect class="cls-6" x="183.87" y="222.26" width="210.77" height="5.21"/><rect class="cls-6" x="183.87" y="232.67" width="113.63" height="5.21"/><rect class="cls-6" x="183.87" y="85.12" width="43.99" height="5.21"/></g><path class="cls-9" d="M420.29,253.52H152.71a8.93,8.93,0,0,1-9.17-8.66v-184a8.93,8.93,0,0,1,9.17-8.66H420.29a8.93,8.93,0,0,1,9.17,8.66v184A8.93,8.93,0,0,1,420.29,253.52Z"/><path class="cls-10" d="M251.68,201.44H224.19a3.57,3.57,0,0,1-3.67-3.46V106a3.57,3.57,0,0,1,3.67-3.46h27.49a3.57,3.57,0,0,1,3.66,3.46v92A3.57,3.57,0,0,1,251.68,201.44Z"/><path class="cls-10" d="M207.69,201.44H180.2a3.57,3.57,0,0,1-3.67-3.46V106a3.57,3.57,0,0,1,3.67-3.46h27.49a3.57,3.57,0,0,1,3.67,3.46v92A3.57,3.57,0,0,1,207.69,201.44Z"/><path class="cls-11" d="M207.69,201.44H180.2a3.57,3.57,0,0,1-3.67-3.46V145.89a3.58,3.58,0,0,1,3.67-3.47h27.49a3.57,3.57,0,0,1,3.67,3.47V198A3.57,3.57,0,0,1,207.69,201.44Z"/><path class="cls-12" d="M251.68,201.44H224.19a3.57,3.57,0,0,1-3.67-3.46V175.4a3.57,3.57,0,0,1,3.67-3.47h27.49a3.57,3.57,0,0,1,3.66,3.47V198A3.57,3.57,0,0,1,251.68,201.44Z"/><path class="cls-10" d="M295.66,201.44H268.17a3.57,3.57,0,0,1-3.66-3.46V106a3.57,3.57,0,0,1,3.66-3.46h27.49a3.57,3.57,0,0,1,3.67,3.46v92A3.57,3.57,0,0,1,295.66,201.44Z"/><path class="cls-10" d="M339.65,201.44H312.16a3.57,3.57,0,0,1-3.67-3.46V106a3.57,3.57,0,0,1,3.67-3.46h27.49a3.57,3.57,0,0,1,3.67,3.46v92A3.57,3.57,0,0,1,339.65,201.44Z"/><path class="cls-10" d="M383.64,201.44H356.15a3.57,3.57,0,0,1-3.67-3.46V106a3.57,3.57,0,0,1,3.67-3.46h27.49A3.57,3.57,0,0,1,387.3,106v92A3.57,3.57,0,0,1,383.64,201.44Z"/><path class="cls-13" d="M295.66,201.44H268.17a3.57,3.57,0,0,1-3.66-3.46V154.57a3.57,3.57,0,0,1,3.66-3.47h27.49a3.57,3.57,0,0,1,3.67,3.47V198A3.57,3.57,0,0,1,295.66,201.44Z"/><path class="cls-14" d="M339.65,201.44H312.16a3.57,3.57,0,0,1-3.67-3.46V182.34a3.57,3.57,0,0,1,3.67-3.46h27.49a3.57,3.57,0,0,1,3.67,3.46V198A3.57,3.57,0,0,1,339.65,201.44Z"/><path class="cls-15" d="M383.64,201.44H356.15a3.57,3.57,0,0,1-3.67-3.46V154.57a3.57,3.57,0,0,1,3.67-3.47h27.49a3.57,3.57,0,0,1,3.66,3.47V198A3.57,3.57,0,0,1,383.64,201.44Z"/><rect class="cls-10" x="176.53" y="215.33" width="210.77" height="5.21"/><rect class="cls-10" x="176.53" y="225.74" width="113.63" height="5.21"/><rect class="cls-16" x="176.53" y="78.2" width="43.99" height="5.21"/><g class="cls-5"><path class="cls-6" d="M272.25,94.85s9.08-21.61,10.45-19.57-1.08,5-.57,10.28c0,0,16.75-19.08,17.63-16.86s-9.46,15.06-9.24,15.36,12.41-13.21,13.69-11.71-10.09,14-10.09,14,11.52-10.85,13-9.32S298,88.6,298,88.6s9-8.31,10.27-6.91c.8.86-21.89,27.69-21.26,28.27.33.3-14.73-15.11-14.73-15.11"/><path class="cls-6" d="M80.47,355.57c1,5.6,11.35,191.67,23.57,312.58h48.54s-24-279-18.32-279.48c6.55-.53,61.89,279.48,61.89,279.48h46.32L172,347.47Z"/><path class="cls-6" d="M274.38,89.21s-40.88,46.24-63.26,65.73-67.74,44.81-67.74,44.81l.05.06c-10.62,2-17.68,3.93-22.5,5.15-14.91,3.8-18.21,4.27-28.51,8.08a86.65,86.65,0,0,0-44.61,36.45c-14.19,23.79-32.21,61.27-29.3,94.41,3.14,35.73,35.07,25,58.28,12.16.1.94.15,1.45.15,1.45h99.43V249.15s0-1.08-.14-2.9l.14.19s36.15-41.41,53.17-57.5c29-27.38,61.68-79.48,61.68-79.48ZM62.9,319.57l11.38-43.95c.75,7.56-3.2,33.09-2.49,40.18Z"/><path class="cls-6" d="M107.23,208.18s-6.48,28.49,2.61,24.34,15.86-7.9,15.86-7.9,9.06,10.54,13.43,4.12-4.16-27.4-4.16-27.4Z"/><path class="cls-6" d="M99.63,144.74l2.09,26S91.38,172.07,94.33,181s10,5,10,5,1.77,22.87,26.51,15.62,16.49-43.51,14.13-65.27Z"/><path class="cls-6" d="M101.72,180.3,108.38,214c1.5,7.58,9.4,12.44,17.32,10.65h0c7.35-1.66,12-8.46,10.73-15.5l-3.62-19.29Z"/><path class="cls-6" d="M105.3,331.89a5.72,5.72,0,0,1-1,1.33c-.69.82-1.74,2-3.08,3.36A116.8,116.8,0,0,1,90,346.69a117.6,117.6,0,0,1-12.54,8.64c-1.68,1-3.06,1.77-4,2.26a6.69,6.69,0,0,1-1.56.7c-.07-.11,2-1.35,5.26-3.46s7.68-5.14,12.31-8.79,8.58-7.22,11.36-9.88S105.2,331.81,105.3,331.89Z"/><path class="cls-6" d="M55.49,330.78c-.22-.12,1.17-2.79,3.09-6s3.65-5.66,3.87-5.54-1.17,2.79-3.09,6S55.7,330.9,55.49,330.78Z"/><path class="cls-6" d="M62.23,320.13a19.23,19.23,0,0,1,2.56-1.25l7.09-3.19c6-2.69,14.24-6.44,23.26-10.77l4.38-2.11.55-.27.09.58c1.29,8.41,2.39,15.85,3.15,21.19.34,2.57.62,4.68.84,6.3a13.49,13.49,0,0,1,.2,2.3,11.74,11.74,0,0,1-.52-2.25c-.28-1.61-.66-3.72-1.11-6.27-.91-5.32-2.12-12.74-3.44-21.14l.64.31-4.37,2.12c-9,4.33-17.34,8-23.4,10.56-3,1.27-5.5,2.27-7.22,2.94A18.25,18.25,0,0,1,62.23,320.13Z"/><path class="cls-6" d="M62.89,319c.16.18-2.16,2.31-5.18,4.76s-5.61,4.29-5.77,4.11,2.16-2.3,5.19-4.76S62.73,318.77,62.89,319Z"/><path class="cls-6" d="M129.29,357.92c-.25,0-1.35-28.81-2.45-64.36s-1.81-64.38-1.57-64.39,1.35,28.81,2.46,64.37S129.54,357.91,129.29,357.92Z"/><path class="cls-6" d="M101.08,309s20-13.54,20-11.13-3.77,3.68-6.34,8.36c0,0,25-7.49,24.45-5.17s-16.55,7.84-16.54,8.2,18-4.77,18.2-2.85-16.48,6.64-16.48,6.64,15.88-3.23,16.24-1.2-14.28,5-14.28,5,12.29-2.4,12.59-.55c.18,1.12-34.22,12.1-34,12.91.11.42-3.78-20.25-3.78-20.25"/><path class="cls-6" d="M287,114.72c-.17.16-4.76-3.86-10.23-9s-9.79-9.44-9.61-9.6,4.75,3.86,10.23,9S287.2,114.55,287,114.72Z"/><path class="cls-6" d="M129.2,180.68c.06,0,.26.28.83.4a2.25,2.25,0,0,0,2.11-.81,4.91,4.91,0,0,0,.43-3.47c-.15-1.47-.3-3-.47-4.64-.3-3.3-.53-6.29-.66-8.45a14,14,0,0,1,0-3.52,13.38,13.38,0,0,1,.64,3.47c.29,2.15.62,5.13.92,8.42.14,1.63.28,3.18.4,4.65a5.28,5.28,0,0,1-.75,3.9,2.6,2.6,0,0,1-2.72.77C129.24,181.12,129.16,180.68,129.2,180.68Z"/><path class="cls-6" d="M138.14,198.55a8.72,8.72,0,0,1-3,2.1,20.15,20.15,0,0,1-17.48.35,9,9,0,0,1-3.08-2c.08-.12,1.26.63,3.33,1.43a22.1,22.1,0,0,0,17-.34C136.91,199.22,138.05,198.43,138.14,198.55Z"/><path class="cls-6" d="M132.27,185.41c.08.05-.28.75-1.36,1.42a6.14,6.14,0,0,1-4.88.62,5.74,5.74,0,0,1-3.59-3.19c-.47-1.15-.33-1.92-.23-1.92s.24.7.8,1.66a5.88,5.88,0,0,0,3.29,2.64,6.31,6.31,0,0,0,4.3-.33C131.64,185.84,132.16,185.32,132.27,185.41Z"/><path class="cls-6" d="M123.42,181.9c0,.24-1,.44-1.83,1.11s-1.35,1.46-1.6,1.4-.11-1.23,1.05-2.07S123.46,181.67,123.42,181.9Z"/><path class="cls-6" d="M100.94,182.11c0,.09-.61.3-1.6,0A2.19,2.19,0,0,1,98,180.83a1.76,1.76,0,0,1,0-1.14,1.51,1.51,0,0,1,1-1,1.54,1.54,0,0,1,1.83.51l-.76.38c-.82-1.88-1.29-3.28-1.1-3.36s1,1.2,1.88,3l-.76.37a.68.68,0,0,0-.77-.14.8.8,0,0,0-.43,1.07,1.6,1.6,0,0,0,.82,1C100.34,181.94,101,182,100.94,182.11Z"/><path class="cls-6" d="M140.82,166c-.24.05-.63-.74-.87-1.75s-.25-1.89,0-1.94.63.73.88,1.75S141.06,165.91,140.82,166Z"/><path class="cls-6" d="M121.26,167.81c-.24.06-.67-.71-1-1.73s-.35-1.89-.11-2,.67.72,1,1.73S121.5,167.75,121.26,167.81Z"/><path class="cls-6" d="M99.46,171.33c-3.19-6.82-4.15-13.55-4.95-21a22.7,22.7,0,0,1,.47-9.07,10.53,10.53,0,0,1,5.9-6.83c4.24-1.67,9.3.12,13.61-1.39a15.09,15.09,0,0,0,5.6-4,37.68,37.68,0,0,1,5-4.74,8.9,8.9,0,0,1,6.59-1.8c2.31.42,4.36,2.47,4.1,4.68a12.49,12.49,0,0,1,21.75.81,11.29,11.29,0,0,1-1.63,12c-2.64,3.09-7.52,3.25-10.8,5.73-6.92,5.22-17.78,6.29-28.7,3.93-4.73-1-10.42.72-11.37,5.23-.35,1.66,0,8.26.06,10a7.84,7.84,0,0,1-1,4.93,3.82,3.82,0,0,1-4.62,1.49"/><path class="cls-6" d="M120,159.43c-.24.68-1.27,1-2.31,1.26s-2.11.45-2.66,0c-.26-.25-.27-.71.07-1.21a3.2,3.2,0,0,1,1.91-1.23,3.44,3.44,0,0,1,2.3.18C119.85,158.7,120.08,159.1,120,159.43Z"/><path class="cls-6" d="M141.37,156.22c-.3.65-1.5.78-2.76.91s-2.47.15-2.89-.44.65-1.93,2.66-2.09S141.7,155.6,141.37,156.22Z"/><path class="cls-6" d="M97.08,339.35c-.24,0-2-7-4-15.75S89.77,307.73,90,307.68s2,7,4,15.75S97.32,339.3,97.08,339.35Z"/><path class="cls-6" d="M96,311c.09.22-.69.73-1.75,1.14s-2,.57-2.08.35.68-.72,1.74-1.14S95.91,310.78,96,311Z"/><path class="cls-6" d="M160.6,254.48c0,.23-4.23,1.15-9.54,2.06s-9.65,1.45-9.69,1.22,4.22-1.15,9.53-2S160.56,254.25,160.6,254.48Z"/><path class="cls-6" d="M67.6,228.37s.21,0,.59.11a14.09,14.09,0,0,1,1.62.55A18.65,18.65,0,0,1,75,232.39a21.81,21.81,0,0,1,5.24,7.37,25.82,25.82,0,0,1,2,10.7c-.16,7.8-3,14.43-5.12,19-1.08,2.3-2,4.12-2.7,5.37a11.68,11.68,0,0,1-1.13,1.9,10.29,10.29,0,0,1,.81-2c.65-1.44,1.46-3.27,2.44-5.46,1.94-4.61,4.65-11.17,4.8-18.77a25.88,25.88,0,0,0-1.85-10.4,22,22,0,0,0-4.93-7.23C70.88,229.28,67.49,228.55,67.6,228.37Z"/><path class="cls-6" d="M126.76,656.33s-.06-.26-.13-.77-.17-1.29-.29-2.25c-.24-2-.58-4.94-1-8.67-.89-7.53-2.06-18.43-3.43-31.92-2.75-27-6.11-64.26-9-105.5s-4.77-78.65-5.81-105.72c-.53-13.54-.88-24.49-1.06-32.07-.08-3.75-.15-6.68-.2-8.72,0-1,0-1.72,0-2.26a6.54,6.54,0,0,1,0-.78s0,.26.07.77.06,1.3.11,2.27c.09,2,.21,5,.37,8.71.32,7.61.77,18.55,1.34,32.06,1.2,27.06,3.18,64.43,6.07,105.68s6.16,78.53,8.75,105.51c1.32,13.45,2.4,24.36,3.14,31.94l.86,8.68c.08,1,.15,1.72.2,2.26S126.76,656.33,126.76,656.33Z"/><path class="cls-6" d="M214.58,658s-.08-.26-.2-.77-.3-1.3-.51-2.28L212,646.21c-1.61-7.61-3.85-18.64-6.53-32.29-5.4-27.28-12.39-65-20.37-106.7S169.3,427.93,163.15,400.8c-1.49-6.8-3-12.91-4.21-18.3s-2.35-10-3.28-13.79-1.6-6.68-2.08-8.71c-.23-1-.4-1.73-.52-2.27s-.15-.78-.15-.78.09.25.23.76.35,1.29.61,2.25c.53,2,1.28,4.94,2.25,8.68s2.15,8.38,3.43,13.76,2.81,11.48,4.34,18.27c6.31,27.11,14.22,64.72,22.2,106.4s15,79.39,20.11,106.75c2.64,13.62,4.77,24.65,6.25,32.32.74,3.79,1.32,6.74,1.71,8.79.18,1,.33,1.74.43,2.29S214.58,658,214.58,658Z"/><path class="cls-6" d="M95.91,358.55a9,9,0,0,1,1,4,16.4,16.4,0,0,1-2.3,9.7A17.8,17.8,0,0,1,87,379a10.41,10.41,0,0,1-4.17,1.2c0-.15,1.58-.51,3.88-1.73a18.84,18.84,0,0,0,7.18-6.67,17.36,17.36,0,0,0,2.45-9.25C96.24,360.09,95.75,358.58,95.91,358.55Z"/><path class="cls-6" d="M139.91,384.64s0,.57-.78,1.25a4.64,4.64,0,0,1-4,.92,3.73,3.73,0,0,1-2.38-1.72,8.46,8.46,0,0,1-1-3c-.35-2.15-.74-4.47-1.14-6.91-.79-4.92-1.45-9.37-1.89-12.6a31.76,31.76,0,0,1-.52-5.25,31.36,31.36,0,0,1,1.15,5.16c.59,3.21,1.36,7.65,2.14,12.56.38,2.44.74,4.77,1.08,6.93a8.11,8.11,0,0,0,.79,2.81,3,3,0,0,0,1.9,1.48,4.38,4.38,0,0,0,3.64-.59C139.63,385.1,139.83,384.6,139.91,384.64Z"/><path class="cls-6" d="M178.47,375.72c0,.06-.39.08-1.09,0a13.43,13.43,0,0,1-2.94-.46,18.36,18.36,0,0,1-4.1-1.57,21.25,21.25,0,0,1-4.34-3.1,20.22,20.22,0,0,1-3.3-4.09,16.22,16.22,0,0,1-1.69-3.87,11.65,11.65,0,0,1-.51-2.78c0-.67,0-1,0-1s.28,1.45,1.07,3.64a18.88,18.88,0,0,0,1.8,3.66,22,22,0,0,0,3.22,3.88,22.67,22.67,0,0,0,4.12,3,20.88,20.88,0,0,0,3.88,1.68C176.94,375.47,178.49,375.57,178.47,375.72Z"/></g><path class="cls-17" d="M264.92,87.93S274,66.32,275.37,68.35s-1.08,5-.57,10.28c0,0,16.75-19.08,17.63-16.86S283,76.84,283.19,77.13s12.41-13.21,13.69-11.7-10.09,14-10.09,14,11.52-10.84,13-9.31-9.13,11.54-9.13,11.54,9-8.3,10.27-6.9c.8.85-21.89,27.69-21.26,28.26.33.3-14.73-15.1-14.73-15.1"/><path class="cls-18" d="M73.14,348.65c1,5.6,11.35,191.66,23.57,312.57h48.54s-24-279-18.32-279.47c6.55-.54,61.88,279.47,61.88,279.47h46.33l-70.5-320.68Z"/><path class="cls-19" d="M267.05,82.29S226.17,128.52,203.79,148s-67.74,44.81-67.74,44.81l0,.06c-10.61,2-17.67,3.93-22.49,5.16-14.91,3.8-18.22,4.27-28.51,8.07a86.62,86.62,0,0,0-44.61,36.46C26.29,266.36,8.27,303.84,11.18,337c3.14,35.73,35.07,25,58.28,12.15.1.95.15,1.45.15,1.45H169V242.22s0-1.07-.14-2.89l.14.19s36.15-41.42,53.17-57.5c29-27.38,61.68-79.49,61.68-79.49ZM55.57,312.64,67,268.7c.75,7.56-3.2,33.08-2.49,40.17Z"/><path class="cls-20" d="M99.9,201.25s-6.48,28.49,2.61,24.35,15.86-7.91,15.86-7.91,9,10.55,13.43,4.12-4.16-27.4-4.16-27.4Z"/><path class="cls-17" d="M92.3,137.81l2.08,26S84.05,165.15,87,174.07s10,5,10,5,1.77,22.88,26.51,15.62S140,151.2,137.65,129.44Z"/><path class="cls-17" d="M94.38,173.38,101.05,207c1.5,7.59,9.4,12.44,17.32,10.65h0c7.35-1.66,12-8.45,10.73-15.5l-3.62-19.29Z"/><g class="cls-21"><path class="cls-18" d="M98,325a5.72,5.72,0,0,1-1,1.33c-.69.82-1.74,2-3.08,3.35a114.2,114.2,0,0,1-11.25,10.11,116.13,116.13,0,0,1-12.54,8.64c-1.68,1-3.06,1.77-4,2.26a6.52,6.52,0,0,1-1.56.71,60.42,60.42,0,0,1,5.26-3.47c3.26-2.11,7.68-5.14,12.31-8.79s8.58-7.22,11.36-9.87S97.87,324.88,98,325Z"/></g><g class="cls-21"><path class="cls-18" d="M48.16,323.85c-.22-.11,1.17-2.78,3.09-6s3.65-5.65,3.87-5.53-1.17,2.78-3.1,6S48.37,324,48.16,323.85Z"/></g><g class="cls-21"><path class="cls-18" d="M54.9,313.21A17,17,0,0,1,57.46,312l7.09-3.19c6-2.68,14.24-6.44,23.26-10.76l4.37-2.11.56-.27.09.58c1.29,8.4,2.39,15.85,3.14,21.19.35,2.56.63,4.68.85,6.3A11.56,11.56,0,0,1,97,326a13.54,13.54,0,0,1-.51-2.26c-.28-1.61-.66-3.71-1.11-6.26-.91-5.32-2.12-12.75-3.44-21.15l.64.31-4.37,2.12c-9,4.33-17.34,8-23.4,10.56-3,1.28-5.5,2.27-7.22,2.94A19.32,19.32,0,0,1,54.9,313.21Z"/></g><g class="cls-21"><path class="cls-18" d="M55.56,312c.16.18-2.16,2.31-5.18,4.76s-5.61,4.3-5.77,4.12,2.16-2.31,5.18-4.76S55.4,311.85,55.56,312Z"/></g><g class="cls-21"><path class="cls-18" d="M122,351c-.25,0-1.35-28.82-2.46-64.36s-1.81-64.39-1.56-64.39,1.35,28.8,2.46,64.36S122.21,351,122,351Z"/></g><path class="cls-17" d="M93.75,302.09s20-13.55,20-11.13-3.77,3.67-6.34,8.36c0,0,25-7.49,24.45-5.18s-16.55,7.84-16.54,8.21,18-4.77,18.2-2.85S117,306.13,117,306.13s15.88-3.23,16.24-1.2S119,310,119,310s12.29-2.41,12.59-.56c.18,1.13-34.22,12.1-34,12.91.11.42-3.78-20.24-3.78-20.24"/><g class="cls-21"><path class="cls-18" d="M279.7,107.79c-.17.17-4.76-3.86-10.24-9s-9.78-9.43-9.6-9.6,4.75,3.86,10.23,9S279.87,107.63,279.7,107.79Z"/></g><path class="cls-18" d="M121.87,173.76c.06,0,.26.28.83.4a2.24,2.24,0,0,0,2.11-.82,5,5,0,0,0,.43-3.46c-.15-1.47-.3-3-.47-4.65-.31-3.29-.54-6.28-.66-8.45a14,14,0,0,1,0-3.52,14.06,14.06,0,0,1,.64,3.47c.29,2.15.61,5.13.92,8.43.14,1.63.28,3.18.4,4.65a5.24,5.24,0,0,1-.75,3.89,2.57,2.57,0,0,1-2.72.77C121.91,174.2,121.83,173.76,121.87,173.76Z"/><path class="cls-18" d="M130.81,191.62a8.7,8.7,0,0,1-3,2.1,20.06,20.06,0,0,1-17.48.35,8.7,8.7,0,0,1-3.08-2c.08-.11,1.26.63,3.33,1.43a22,22,0,0,0,17-.33C129.58,192.3,130.72,191.51,130.81,191.62Z"/><path class="cls-18" d="M124.94,178.48c.08.05-.28.76-1.37,1.43a6.12,6.12,0,0,1-4.87.61,5.71,5.71,0,0,1-3.59-3.19c-.47-1.14-.33-1.91-.23-1.91s.24.7.8,1.66a6,6,0,0,0,3.29,2.64,6.31,6.31,0,0,0,4.3-.33C124.31,178.92,124.83,178.39,124.94,178.48Z"/><path class="cls-18" d="M116.09,175c0,.25-1,.44-1.84,1.11s-1.34,1.47-1.59,1.4-.11-1.23,1-2.07S116.13,174.74,116.09,175Z"/><path class="cls-18" d="M93.61,175.19c0,.09-.61.29-1.6,0a2.17,2.17,0,0,1-1.34-1.25,1.72,1.72,0,0,1,0-1.15,1.53,1.53,0,0,1,.95-1,1.55,1.55,0,0,1,1.83.52l-.76.37c-.82-1.87-1.29-3.28-1.1-3.36s1,1.2,1.88,3l-.76.37a.69.69,0,0,0-.78-.13.81.81,0,0,0-.43,1.07,1.66,1.66,0,0,0,.83,1C93,175,93.62,175.06,93.61,175.19Z"/><path class="cls-18" d="M133.49,159c-.24.05-.63-.73-.88-1.75s-.24-1.88,0-1.93.63.73.88,1.75S133.73,159,133.49,159Z"/><path class="cls-18" d="M113.93,160.88c-.24.07-.67-.71-1-1.73s-.35-1.89-.11-2,.67.71,1,1.73S114.17,160.82,113.93,160.88Z"/><path class="cls-18" d="M92.13,164.41c-3.2-6.82-4.15-13.56-4.95-21a22.82,22.82,0,0,1,.46-9.06,10.52,10.52,0,0,1,5.91-6.83c4.24-1.68,9.3.11,13.61-1.39a15.12,15.12,0,0,0,5.6-4,37.68,37.68,0,0,1,5-4.74,9,9,0,0,1,6.59-1.8c2.31.43,4.35,2.47,4.1,4.69a12.49,12.49,0,0,1,21.75.81,11.29,11.29,0,0,1-1.63,12c-2.64,3.09-7.52,3.25-10.8,5.72-6.92,5.22-17.78,6.3-28.7,3.94-4.73-1-10.42.72-11.37,5.22-.35,1.67,0,8.27.06,10a7.84,7.84,0,0,1-1,4.93,3.84,3.84,0,0,1-4.62,1.5"/><path class="cls-18" d="M112.65,152.5c-.23.68-1.26,1-2.3,1.26s-2.11.46-2.67,0c-.25-.25-.26-.7.08-1.2a3.25,3.25,0,0,1,1.91-1.24,3.44,3.44,0,0,1,2.3.19C112.52,151.77,112.75,152.17,112.65,152.5Z"/><path class="cls-18" d="M134,149.29c-.31.65-1.5.79-2.76.91s-2.47.15-2.89-.44.65-1.92,2.65-2.09S134.37,148.67,134,149.29Z"/><g class="cls-21"><path class="cls-18" d="M89.75,332.42c-.24.05-2-7-4-15.74s-3.34-15.87-3.1-15.92,2,7,4,15.74S90,332.37,89.75,332.42Z"/></g><g class="cls-21"><path class="cls-18" d="M88.68,304.07c.09.21-.69.72-1.75,1.13s-2,.57-2.09.35.69-.72,1.75-1.13S88.58,303.85,88.68,304.07Z"/></g><g class="cls-21"><path class="cls-18" d="M153.27,247.56c0,.23-4.23,1.15-9.54,2.05s-9.65,1.46-9.69,1.23,4.22-1.15,9.53-2.06S153.22,247.33,153.27,247.56Z"/></g><g class="cls-21"><path class="cls-18" d="M60.27,221.44a2.13,2.13,0,0,1,.59.12,13.44,13.44,0,0,1,1.61.55,18.52,18.52,0,0,1,5.23,3.36A21.74,21.74,0,0,1,73,232.83a25.85,25.85,0,0,1,2,10.7c-.17,7.81-3,14.43-5.12,19-1.08,2.29-2,4.11-2.7,5.36a11.11,11.11,0,0,1-1.13,1.9,10.57,10.57,0,0,1,.81-2c.65-1.44,1.46-3.27,2.44-5.46,1.94-4.6,4.65-11.17,4.8-18.77a25.74,25.74,0,0,0-1.86-10.4,21.63,21.63,0,0,0-4.92-7.22C63.54,222.35,60.16,221.62,60.27,221.44Z"/></g><path class="cls-22" d="M119.43,649.4s-.06-.26-.13-.76-.17-1.29-.29-2.25c-.24-2-.58-4.94-1-8.67-.88-7.53-2.06-18.44-3.42-31.92-2.76-27-6.11-64.26-9-105.5s-4.77-78.65-5.81-105.73c-.53-13.53-.88-24.49-1.06-32.06-.09-3.76-.15-6.69-.2-8.72,0-1,0-1.72,0-2.27a7.52,7.52,0,0,1,0-.77s0,.26.07.77.06,1.3.11,2.26c.09,2,.21,5,.37,8.72.31,7.61.77,18.55,1.34,32.05,1.2,27.06,3.18,64.44,6.07,105.69s6.16,78.53,8.75,105.5c1.32,13.46,2.39,24.36,3.14,31.94l.86,8.69c.08,1,.15,1.71.2,2.26S119.43,649.4,119.43,649.4Z"/><path class="cls-22" d="M207.25,651.08s-.08-.26-.2-.77-.3-1.3-.51-2.27c-.44-2-1.07-5-1.88-8.76-1.61-7.61-3.85-18.64-6.53-32.28-5.4-27.28-12.39-65-20.38-106.7S162,421,155.82,393.87c-1.49-6.79-3-12.91-4.21-18.29s-2.35-10-3.28-13.79-1.6-6.69-2.09-8.72c-.22-1-.39-1.72-.52-2.27s-.14-.78-.14-.78.09.26.23.76.35,1.29.61,2.25c.52,2,1.28,4.94,2.25,8.68s2.15,8.39,3.43,13.76,2.81,11.49,4.34,18.28c6.31,27.1,14.22,64.72,22.19,106.4s15,79.39,20.12,106.74c2.64,13.62,4.77,24.66,6.25,32.33.74,3.78,1.31,6.74,1.71,8.79.18,1,.32,1.74.43,2.29S207.25,651.08,207.25,651.08Z"/><path class="cls-22" d="M88.57,351.62a8.86,8.86,0,0,1,1,4,16.36,16.36,0,0,1-2.3,9.69,17.76,17.76,0,0,1-7.67,6.79,10.14,10.14,0,0,1-4.17,1.19c0-.14,1.58-.51,3.87-1.72a18.74,18.74,0,0,0,7.19-6.68A17.35,17.35,0,0,0,89,355.66C88.91,353.17,88.42,351.66,88.57,351.62Z"/><path class="cls-22" d="M132.58,377.72s-.05.57-.78,1.24a4.58,4.58,0,0,1-4,.92,3.71,3.71,0,0,1-2.38-1.71,8.59,8.59,0,0,1-1-3c-.35-2.16-.74-4.48-1.14-6.92-.79-4.91-1.45-9.36-1.89-12.59a31.82,31.82,0,0,1-.52-5.26,31.69,31.69,0,0,1,1.15,5.17c.59,3.2,1.36,7.64,2.14,12.55.38,2.45.74,4.77,1.08,6.93a7.78,7.78,0,0,0,.79,2.81,3.07,3.07,0,0,0,1.9,1.49,4.38,4.38,0,0,0,3.64-.6C132.3,378.18,132.5,377.68,132.58,377.72Z"/><path class="cls-22" d="M171.14,368.8c0,.06-.39.07-1.09.05a14.08,14.08,0,0,1-2.94-.46,18.94,18.94,0,0,1-4.1-1.58,21.18,21.18,0,0,1-4.34-3.09,20.22,20.22,0,0,1-3.3-4.09,16.76,16.76,0,0,1-1.7-3.88,11.89,11.89,0,0,1-.5-2.78c0-.66,0-1,0-1s.28,1.45,1.07,3.63a19.22,19.22,0,0,0,1.8,3.67,22.37,22.37,0,0,0,3.22,3.88,23.66,23.66,0,0,0,4.12,3,21.27,21.27,0,0,0,3.88,1.68C169.61,368.54,171.16,368.64,171.14,368.8Z"/></g></g></g></svg>